<mxfile host="app.diagrams.net" modified="2022-09-19T11:16:03.808Z" agent="5.0 (Windows NT 10.0; Win64; x64) AppleWebKit/537.36 (KHTML, like Gecko) Chrome/105.0.0.0 Safari/537.36 Edg/105.0.1343.42" etag="10n1yexm6TP5B7KnKkCq" version="20.3.2" type="github">
  <diagram id="C5RBs43oDa-KdzZeNtuy" name="Page-1">
    <mxGraphModel dx="1421" dy="762" grid="0" gridSize="10" guides="1" tooltips="1" connect="1" arrows="1" fold="1" page="1" pageScale="1" pageWidth="3300" pageHeight="2339" math="0" shadow="0">
      <root>
        <mxCell id="WIyWlLk6GJQsqaUBKTNV-0" />
        <mxCell id="WIyWlLk6GJQsqaUBKTNV-1" parent="WIyWlLk6GJQsqaUBKTNV-0" />
        <mxCell id="Zu6oLmDhKKCL5ZHN-sH_-3" style="edgeStyle=orthogonalEdgeStyle;rounded=0;orthogonalLoop=1;jettySize=auto;html=1;exitX=0.5;exitY=1;exitDx=0;exitDy=0;entryX=0.5;entryY=0;entryDx=0;entryDy=0;fontFamily=Verdana;fontSize=15;fontStyle=0;spacing=2;" parent="WIyWlLk6GJQsqaUBKTNV-1" source="Zu6oLmDhKKCL5ZHN-sH_-0" target="Zu6oLmDhKKCL5ZHN-sH_-1" edge="1">
          <mxGeometry relative="1" as="geometry" />
        </mxCell>
        <mxCell id="Zu6oLmDhKKCL5ZHN-sH_-0" value="&lt;font style=&quot;font-size: 15px;&quot;&gt;开始&lt;/font&gt;" style="rounded=1;whiteSpace=wrap;html=1;fontSize=15;fontStyle=0;spacing=2;" parent="WIyWlLk6GJQsqaUBKTNV-1" vertex="1">
          <mxGeometry x="365" y="41" width="100" height="50" as="geometry" />
        </mxCell>
        <mxCell id="Zu6oLmDhKKCL5ZHN-sH_-5" style="edgeStyle=orthogonalEdgeStyle;rounded=0;orthogonalLoop=1;jettySize=auto;html=1;exitX=0.5;exitY=1;exitDx=0;exitDy=0;fontFamily=Verdana;fontSize=15;fontStyle=0;spacing=2;" parent="WIyWlLk6GJQsqaUBKTNV-1" source="Zu6oLmDhKKCL5ZHN-sH_-1" target="Zu6oLmDhKKCL5ZHN-sH_-4" edge="1">
          <mxGeometry relative="1" as="geometry" />
        </mxCell>
        <mxCell id="Zu6oLmDhKKCL5ZHN-sH_-1" value="输入评分矩阵" style="rounded=0;whiteSpace=wrap;html=1;fontFamily=Verdana;fontSize=15;fontStyle=0;spacing=2;" parent="WIyWlLk6GJQsqaUBKTNV-1" vertex="1">
          <mxGeometry x="339.75" y="112" width="150.5" height="40" as="geometry" />
        </mxCell>
        <mxCell id="Zu6oLmDhKKCL5ZHN-sH_-7" value="" style="edgeStyle=orthogonalEdgeStyle;rounded=0;orthogonalLoop=1;jettySize=auto;html=1;fontFamily=Verdana;fontSize=15;fontStyle=0;spacing=2;" parent="WIyWlLk6GJQsqaUBKTNV-1" source="Zu6oLmDhKKCL5ZHN-sH_-4" target="Zu6oLmDhKKCL5ZHN-sH_-6" edge="1">
          <mxGeometry relative="1" as="geometry" />
        </mxCell>
        <mxCell id="Zu6oLmDhKKCL5ZHN-sH_-4" value="PCA算法降维数据" style="rounded=0;whiteSpace=wrap;html=1;fontFamily=Verdana;fontSize=15;fontStyle=0;spacing=2;" parent="WIyWlLk6GJQsqaUBKTNV-1" vertex="1">
          <mxGeometry x="300.87" y="179" width="228.25" height="40" as="geometry" />
        </mxCell>
        <mxCell id="Zu6oLmDhKKCL5ZHN-sH_-9" value="" style="edgeStyle=orthogonalEdgeStyle;rounded=0;orthogonalLoop=1;jettySize=auto;html=1;fontFamily=Verdana;fontSize=15;fontStyle=0;spacing=2;" parent="WIyWlLk6GJQsqaUBKTNV-1" source="Zu6oLmDhKKCL5ZHN-sH_-6" target="Zu6oLmDhKKCL5ZHN-sH_-8" edge="1">
          <mxGeometry relative="1" as="geometry" />
        </mxCell>
        <mxCell id="Zu6oLmDhKKCL5ZHN-sH_-6" value="使用Canopy算法得到聚类数，使用K-means算法得到相似用户聚簇" style="rounded=0;whiteSpace=wrap;html=1;fontFamily=Verdana;fontSize=15;fontStyle=0;spacing=2;" parent="WIyWlLk6GJQsqaUBKTNV-1" vertex="1">
          <mxGeometry x="210.84" y="244" width="408.29" height="48" as="geometry" />
        </mxCell>
        <mxCell id="Zu6oLmDhKKCL5ZHN-sH_-26" value="" style="edgeStyle=orthogonalEdgeStyle;rounded=0;orthogonalLoop=1;jettySize=auto;html=1;fontFamily=Verdana;fontSize=15;fontStyle=0;spacing=2;" parent="WIyWlLk6GJQsqaUBKTNV-1" source="Zu6oLmDhKKCL5ZHN-sH_-8" target="Zu6oLmDhKKCL5ZHN-sH_-25" edge="1">
          <mxGeometry relative="1" as="geometry" />
        </mxCell>
        <mxCell id="KAhRK0HXeCguGGpzofEj-1" style="edgeStyle=orthogonalEdgeStyle;rounded=0;orthogonalLoop=1;jettySize=auto;html=1;exitX=1;exitY=0.5;exitDx=0;exitDy=0;entryX=0.5;entryY=0;entryDx=0;entryDy=0;" edge="1" parent="WIyWlLk6GJQsqaUBKTNV-1" source="Zu6oLmDhKKCL5ZHN-sH_-8" target="KAhRK0HXeCguGGpzofEj-0">
          <mxGeometry relative="1" as="geometry" />
        </mxCell>
        <mxCell id="Zu6oLmDhKKCL5ZHN-sH_-8" value="使用Apriori算法挖掘聚簇内关联规则" style="rounded=0;whiteSpace=wrap;html=1;fontFamily=Verdana;fontSize=15;fontStyle=0;spacing=2;" parent="WIyWlLk6GJQsqaUBKTNV-1" vertex="1">
          <mxGeometry x="254.20999999999998" y="316" width="321.56" height="40" as="geometry" />
        </mxCell>
        <mxCell id="Zu6oLmDhKKCL5ZHN-sH_-20" value="" style="edgeStyle=orthogonalEdgeStyle;rounded=0;orthogonalLoop=1;jettySize=auto;html=1;fontFamily=Verdana;fontSize=15;fontStyle=0;spacing=2;" parent="WIyWlLk6GJQsqaUBKTNV-1" source="Zu6oLmDhKKCL5ZHN-sH_-12" target="Zu6oLmDhKKCL5ZHN-sH_-19" edge="1">
          <mxGeometry relative="1" as="geometry" />
        </mxCell>
        <mxCell id="Zu6oLmDhKKCL5ZHN-sH_-12" value="预测目标用户对项目的评分" style="rounded=0;whiteSpace=wrap;html=1;fontFamily=Verdana;fontSize=15;fontStyle=0;spacing=2;" parent="WIyWlLk6GJQsqaUBKTNV-1" vertex="1">
          <mxGeometry x="285.84" y="446" width="258.33" height="40" as="geometry" />
        </mxCell>
        <mxCell id="Zu6oLmDhKKCL5ZHN-sH_-22" value="" style="edgeStyle=orthogonalEdgeStyle;rounded=0;orthogonalLoop=1;jettySize=auto;html=1;fontFamily=Verdana;fontSize=15;fontStyle=0;spacing=2;" parent="WIyWlLk6GJQsqaUBKTNV-1" source="Zu6oLmDhKKCL5ZHN-sH_-19" target="Zu6oLmDhKKCL5ZHN-sH_-21" edge="1">
          <mxGeometry relative="1" as="geometry" />
        </mxCell>
        <mxCell id="Zu6oLmDhKKCL5ZHN-sH_-19" value="生成推荐列表" style="rounded=0;whiteSpace=wrap;html=1;fontFamily=Verdana;fontSize=15;fontStyle=0;spacing=2;" parent="WIyWlLk6GJQsqaUBKTNV-1" vertex="1">
          <mxGeometry x="335.4299999999999" y="507" width="159.16" height="40" as="geometry" />
        </mxCell>
        <mxCell id="Zu6oLmDhKKCL5ZHN-sH_-21" value="&lt;font style=&quot;font-size: 15px;&quot;&gt;结束&lt;/font&gt;" style="rounded=1;whiteSpace=wrap;html=1;fontSize=15;fontStyle=0;spacing=2;" parent="WIyWlLk6GJQsqaUBKTNV-1" vertex="1">
          <mxGeometry x="365.00000000000006" y="568" width="100" height="50" as="geometry" />
        </mxCell>
        <mxCell id="Zu6oLmDhKKCL5ZHN-sH_-28" style="edgeStyle=orthogonalEdgeStyle;rounded=0;orthogonalLoop=1;jettySize=auto;html=1;entryX=0.5;entryY=0;entryDx=0;entryDy=0;fontFamily=Verdana;fontSize=15;fontStyle=0;spacing=2;" parent="WIyWlLk6GJQsqaUBKTNV-1" source="Zu6oLmDhKKCL5ZHN-sH_-25" target="Zu6oLmDhKKCL5ZHN-sH_-12" edge="1">
          <mxGeometry relative="1" as="geometry" />
        </mxCell>
        <mxCell id="Zu6oLmDhKKCL5ZHN-sH_-25" value="在目标用户所处簇内计算相似度" style="rounded=0;whiteSpace=wrap;html=1;fontFamily=Verdana;fontSize=15;fontStyle=0;spacing=2;" parent="WIyWlLk6GJQsqaUBKTNV-1" vertex="1">
          <mxGeometry x="287.92" y="381" width="254.13" height="40" as="geometry" />
        </mxCell>
        <mxCell id="KAhRK0HXeCguGGpzofEj-2" style="edgeStyle=orthogonalEdgeStyle;rounded=0;orthogonalLoop=1;jettySize=auto;html=1;exitX=0.5;exitY=1;exitDx=0;exitDy=0;entryX=1;entryY=0.5;entryDx=0;entryDy=0;" edge="1" parent="WIyWlLk6GJQsqaUBKTNV-1" source="KAhRK0HXeCguGGpzofEj-0" target="Zu6oLmDhKKCL5ZHN-sH_-12">
          <mxGeometry relative="1" as="geometry" />
        </mxCell>
        <mxCell id="KAhRK0HXeCguGGpzofEj-0" value="支持度大于min_suppoer的项目关联因子" style="rounded=0;whiteSpace=wrap;html=1;fontFamily=Verdana;fontSize=15;fontStyle=0;spacing=2;" vertex="1" parent="WIyWlLk6GJQsqaUBKTNV-1">
          <mxGeometry x="586" y="369.5" width="196" height="63" as="geometry" />
        </mxCell>
      </root>
    </mxGraphModel>
  </diagram>
</mxfile>
